<svg width="64" height="64" viewBox="0 0 64 64" fill="none" xmlns="http://www.w3.org/2000/svg">
<g filter="url(#filter0_d_204_710)">
<circle cx="32" cy="28" r="28" fill="#EB5E28"/>
<circle cx="32" cy="28" r="27.5" stroke="black"/>
</g>
<g clip-path="url(#clip0_204_710)">
<path fill-rule="evenodd" clip-rule="evenodd" d="M50 28.5C50 33.4603 48.0477 37.9646 44.8699 41.2867C41.5135 44.7951 36.7902 46.9847 31.5552 47C31.5368 47 31.5184 47 31.5 47C31.4816 47 31.4632 47 31.4448 47C26.2098 46.9847 21.4864 44.7951 18.1301 41.2867C14.9522 37.9646 13 33.4603 13 28.5C13 18.2827 21.2827 10 31.5 10C41.7173 10 50 18.2827 50 28.5ZM42.7131 37.75C40.0473 34.5217 36.0138 32.4642 31.5 32.4642C26.9862 32.4642 22.9528 34.5217 20.2868 37.75C22.9528 40.9782 26.9862 43.0357 31.5 43.0357C36.0138 43.0357 40.0473 40.9782 42.7131 37.75ZM31.5003 29.8213C35.1493 29.8213 38.1075 26.8632 38.1075 23.2142C38.1075 19.5652 35.1493 16.6071 31.5003 16.6071C27.8513 16.6071 24.8932 19.5652 24.8932 23.2142C24.8932 26.8632 27.8513 29.8213 31.5003 29.8213Z" fill="white"/>
</g>
<defs>
<filter id="filter0_d_204_710" x="0" y="0" width="64" height="64" filterUnits="userSpaceOnUse" color-interpolation-filters="sRGB">
<feFlood flood-opacity="0" result="BackgroundImageFix"/>
<feColorMatrix in="SourceAlpha" type="matrix" values="0 0 0 0 0 0 0 0 0 0 0 0 0 0 0 0 0 0 127 0" result="hardAlpha"/>
<feOffset dy="4"/>
<feGaussianBlur stdDeviation="2"/>
<feComposite in2="hardAlpha" operator="out"/>
<feColorMatrix type="matrix" values="0 0 0 0 0 0 0 0 0 0 0 0 0 0 0 0 0 0 0.25 0"/>
<feBlend mode="normal" in2="BackgroundImageFix" result="effect1_dropShadow_204_710"/>
<feBlend mode="normal" in="SourceGraphic" in2="effect1_dropShadow_204_710" result="shape"/>
</filter>
<clipPath id="clip0_204_710">
<rect width="37" height="37" fill="white" transform="translate(13 10)"/>
</clipPath>
</defs>
</svg>
